<?xml version="1.0" encoding="utf-8"?>
<!-- Generator: Adobe Illustrator 22.1.0, SVG Export Plug-In . SVG Version: 6.00 Build 0)  -->
<svg version="1.1" id="Layer_1" xmlns="http://www.w3.org/2000/svg" xmlns:xlink="http://www.w3.org/1999/xlink" x="0px" y="0px"
	 viewBox="0 0 120 120" style="enable-background:new 0 0 120 120;" xml:space="preserve">
<style type="text/css">
	.st0{fill:none;stroke:#565656;stroke-width:4;stroke-miterlimit:10;}
	.st1{fill:none;stroke:#565656;stroke-width:3;stroke-miterlimit:10;}
</style>
<path class="st0" d="M26.3,106.9l13.9,6.5v-9.3c0,0,0-3,3.2-3s3,3.5,3,3.5l0,9.7h11.6v-9.7c0,0,0.9-3.5,3.7-3.5c2.8,0,3,3.5,3,3.5
	v9.7L75,113v-11.8c0,0,0.9-1.9,3.5-2.1c2.5-0.2,3.2,2.5,3.2,2.5v9.5l9.5-4.4V92.3c0,0,20.2-13.4,18.8-40.5s-20.2-41-35.7-46.3
	s-44-0.7-55.6,20.8s-9.3,48,2.1,59.3C26.6,91.4,27,93,27,93L26.3,106.9z"/>
<path class="st1" d="M59.3,72.5c0,0-10.1,13.1-5.8,13.4c4.3,0.3,5.8-5.3,5.8-5.3s2.4,5.5,6.9,5.3C70.7,85.8,59.3,72.5,59.3,72.5z"/>
<path class="st1" d="M70,62.9c0,0,1-9.1,11.4-11.4s8.5,11.2,7.2,13.6c-1.3,2.4-5.4,10.2-15.6,3C70,66.1,70,62.9,70,62.9z"/>
<path class="st1" d="M48.6,62c0,0-1-9.1-11.3-11.4s-8.4,11.2-7.2,13.6c1.3,2.4,5.4,10.2,15.5,3C48.6,65.2,48.6,62,48.6,62z"/>
</svg>
