<?xml version="1.0" encoding="utf-8"?>
<!-- Generator: Adobe Illustrator 22.1.0, SVG Export Plug-In . SVG Version: 6.00 Build 0)  -->
<svg version="1.1" id="Layer_1" xmlns="http://www.w3.org/2000/svg" xmlns:xlink="http://www.w3.org/1999/xlink" x="0px" y="0px"
	 viewBox="0 0 792 1224" style="enable-background:new 0 0 792 1224;" xml:space="preserve">
<style type="text/css">
	.st0{fill:#FFFFFF;}
</style>
<g>
	<path class="st0" d="M0,1174C0,799.7,0,425.3,0,51c264.7,0,529.3,0,794,0c0,374.3,0,748.7,0,1123C529.3,1174,264.7,1174,0,1174z
		 M280.1,530.2c-0.1,0.6-0.2,1.2-0.3,1.8c-15.1,0-30.1,0.1-45.2,0c-11.6-0.1-23.2-1-34.8-1c-14.2,0-28.3,0.6-42.5,0.7
		c-14.2,0.1-28.5-0.1-42.7-0.4c-1.2,0-2.3-1.5-3.5-2.1c-1.3-0.6-3.7-1.6-3.9-1.3c-3,4.7-6.3,3.7-10.3,0.5c0,4.5,0,8.5,0,12.7
		c51.9,0,103.6,0,155.2,0c51.7,0,103.3,0,155,0c51.7,0,103.3,0.1,155,0c51.2-0.1,102.4,0.6,153.6-0.5c0-2.9,0-5.6,0-9.1
		c-5.1,0.2-9.9,0.6-14.7,0.6c-4.6,0.1-9.2,0.1-13.8-0.2c-4.6-0.4-9.1-1.4-13.9-2.2c12.1-11.6,13.8-23.9,5.2-34.3
		c-8.2-9.9-21.7-10.2-35-0.6c-2-1.7-4-3.4-6-5.2c1.1-3.7,2.2-7.2,3.4-11c3.4,0,6.3,0,9.3,0c0.1-0.5,0.2-0.9,0.4-1.4
		c-2.1-1.2-4.2-2.3-5.4-3c1.7-3,3.8-5.6,4.5-8.5c0.7-2.8,1.7-4.1,4.2-5.3c5.6-2.6,7.7-7.5,4.3-12.2c-6-8.1-9.9-18.7-21.7-21
		c-2.9-0.6-5.7-2.3-3.9-6.5c0.5-1.1-0.6-2.9-1-4.4c-0.4-1.5-1.2-2.9-1.2-4.4c0.2-5.6-6.7-11.6-12.2-10.2c-3.6,0.9-7.1,1.9-11.1,2.9
		c4.9,2.7,6,6.6,3.8,12.2c-0.8,1.9,0.7,5.3,2.1,7.4c2.4,3.4,3.4,8.6,0.7,11.6c-3.1,3.5-7.1,6.3-10.2,9.8c-2.9,3.2-5.4,6.1-10.5,5.9
		c-1.6-0.1-4.1,3.1-4.9,5.2c-1.3,3.7-1.5,7.9-2.1,11.8c-0.2,1.1-0.8,2.7-0.3,3.2c5,5.4-0.2,10.2-0.2,15.4c-1.3,0-2,0.1-2.6,0
		c-9.7-2.1-17.6,0.7-24.4,7.9c-1,1.1-3.3,1-5,1.5c-2-8.1,2.5-13.7,5.1-20.2c-3.8,0.1-6.9,1.3-10.2,1.7c-3.4,0.4-6.9,0.1-10.1,0.1
		c2-4,4.5-7.4,5.3-11.1c0.6-2.8,1.3-4.5,4.1-5.2c4.3-1,5.2-4.1,4.7-8c-1.1-8.2-7.4-12-13.1-16.7c-2.7-2.2-4.4-0.7-6.7-0.2
		c-1.3,0.3-2.9-1.1-5-1.9c1.7-1.4,2.8-2.4,3.4-2.9c-1.3-2.8-1.9-6.3-3.9-7.7c-2.2-1.5-6.2-2.2-8.7-1.2c-6.6,2.4-5.3,16.3,1.5,18
		c-2,6.7-11.1,13.9-18.5,14.6c-7.2,0.7-9.6,2.8-11,9.7c-1,4.8-2,9.6-3.1,14.6c5.6,5.3-0.8,10.4-0.3,16.2
		c-10.9-2.3-19.3,0.8-24.5,9.9c-5.4,9.4-1.7,17.7,4.8,25.3c-4.6,0.2-8.5,0.6-12.4,0.6c-15,0.1-29.9,0.1-44.9,0
		c-1.5,0-3.5-0.6-4.2-1.6c-0.5-0.9,0.3-3,1.2-4.2c10.8-14.8,5.1-32.5-12.3-38.3c-1-0.3-1.9-1-2.7-1.4c2.3-7.8,4.7-15.1,6.7-22.5
		c3.4-12.8,0.9-25.4-3.7-37.1c-2.3-5.9-4.2-10.6-2.3-16.8c1-3.3-0.6-6.9-4.6-7.7c-3.6-0.7-7.4-1.1-9.9,2.6
		c-3.4,5.1-0.6,15.4,5.3,18.2c-1.3,0.9-2.4,1.7-3,2.1c-2.8-2.4-5.4-4.2-7.3-6.5c-1.8-2.2-3-4.8-4.3-7.4c-1.5-2.9-2.2-6.4-4.1-8.9
		c-4-5.3-12.2-5.4-17.3-0.8c-1.9,1.8-1.7,11.6,1.2,13.2c6.1,3.4,3.2,7.2,1.5,11.1c-3,6.9-10.4,9.4-16.9,5.7c-4-2.3-8.3-1-10.3,3
		c-0.6,1.1-1,2.2-1.5,3.3c-3.2-1.6-6.1-3.1-10.1-5.1c-0.4,7.2-0.7,13.5-1.1,19.7c-0.2,3,0.2,5.1,3.4,6.9c4.9,2.9,5.6,6.8,2.2,9.5
		c-1.6,1.2-4.5,0.9-6.8,1c-2.5,0.1-5.5,2-3.7,3.4c4,3.1,0.9,5.8,0.7,8.5c-0.3,4-2,6.1-6.8,5.4c-13.9-1.9-25.3,5.9-28.1,18.9
		C269.2,515.9,272.9,523.7,280.1,530.2z M288.7,590c3.6-3.3,7-5.8,9.6-8.9c4.5-5.4,6.8-11.7,4-18.5c-2.9-6.8-9.4-7.2-15.6-7.5
		c-0.5,0-1,0-1.5,0c-14.8,0-29.7,0-44.5,0c-1.4,0-2.8,0.2-5.7,0.5c9.7,5.9,6.9,14.4,7.1,21.9c0.3,14.3,0.1,28.7,0,43
		c0,6.2,1.2,12.8-5.6,17.5c10.9,0,21.9,0,32,0c-1.6-3.8-4.1-7.3-4.4-11c-0.7-7.8-0.4-15.6-0.2-23.5c0-1.4,1.2-2.7,1.9-4
		c1.3,0.7,3.1,1.1,3.7,2.2c4.1,7.4,8.1,14.9,11.8,22.5c2.2,4.5,2.9,9.2-2.4,12.5c-0.1,0.1,0.1,0.6,0.1,0.9c5.9,1.9,44,1.3,47.5-1.2
		c-6.4-2.5-5.8-7.4-4.4-12.4c1.3-4.7,2.7-9.3,3.9-13.9c0.8-3.2,2.6-3.9,5.5-3.4c9.2,1.4,15.4,6.8,19.4,14.8c3,6.1,1.9,9.8-3.4,14.2
		c-0.4,0.3-0.4,1.1-0.7,2.2c16.9,0,33.4,0,49.9,0c-6.4-4.6-5.6-11.1-5.7-17.1c-0.1-14.7,0-29.3,0-44c0-1.7,0-3.4,0-5.1
		c0.5-0.2,1.1-0.3,1.6-0.5c11.6,16.4,23.6,32.5,34.7,49.3c4.2,6.4,2.7,10-3,15.5c-0.3,0.3-0.2,1.2-0.2,1.7c7.1,0,13.9,0,20.8,0
		c-5.9-4.1-5.6-9.8-5.6-15.2c-0.1-16.5,0-33,0-49.5c0-6.1-0.5-12.3,5.5-16.4c0.1-0.1-0.1-0.6-0.2-1.1c-6.8,0-13.6,0-21.8,0
		c11.8,8.6,6.2,19.7,7.1,29.7c-4.1-4.7-7.4-9.7-11-14.5c-3.4-4.5-6.5-8.9-2.2-14.5c0.1-0.1-0.3-0.5-0.2-0.5c-13.5,0-26.8,0-39.1,0
		c1.6,3.8,4.3,7.3,4.4,10.8c0.4,20.2,0.3,40.3,0.2,60.5c0,2.1-0.9,4.1-1.4,6.2c-0.6,0-1.1,0-1.7,0.1c-1.2-3-2.8-5.9-3.7-9
		c-4.8-16.6-9.6-33.2-14.1-49.9c-1.6-6.1-5.6-12.2-1-18.8c-10.7,0-20.7,0-30,0c0,4,0.8,7.9-0.1,11.2c-5.2,17.4-10.7,34.7-16.3,51.9
		c-1.3,4-3.1,7.9-4.6,11.8c-0.5,0-0.9,0-1.4,0C303.7,615.9,298.6,601.9,288.7,590z M657.8,599.7c4.3-3.9,8.5-7.2,12-11.2
		c5.9-6.7,8.4-14.6,5.2-23.2c-3.1-8.5-11-9.4-18.7-9.5c-18.8-0.2-37.6-0.2-56.5-0.3c-1.8,0-3.7-0.2-5.5,0.1c-0.8,0.1-1.9,0.9-2,1.5
		c-0.1,0.7,0.6,2,1.3,2.2c4.4,1.6,5.3,5.3,5.4,9.3c0.3,11.6,0.6,23.3,0.6,35c0,14.8-0.3,29.6-0.6,44.5c-0.1,3.7-1,7.2-5.1,9
		c-1,0.4-1.3,2.2-2.3,4c7.9,0,14.6,0,21.2,0c6,0,12,0,18-0.1c1,0,2.1-0.6,2.9-1.3c0.2-0.2-0.4-2.1-1-2.3c-5.6-2.1-5.7-7-5.8-11.6
		c-0.2-9.7-0.1-19.3-0.3-29c-0.1-3.5,1.3-5.3,5.4-5.4c3.4,5.8,7.2,11.6,10.2,17.9c3.1,6.4,5.5,13.1,7.8,19.9
		c1.1,3.3,0.7,6.6-3.6,8.1c-0.8,0.3-1,2.1-1.9,3.8c14.7,0,28.3,0,42-0.1c1,0,1.9-0.8,2.9-1.3c-0.5-0.9-0.8-2.3-1.6-2.7
		c-4.8-2.3-6.4-6.7-7.7-11.2C675.7,629.1,669,613.4,657.8,599.7z M98.7,662.4c5.6-5.1,11.6-2.7,17.6-1.3c18.7,4.2,35.8,0.3,51-11
		c21-15.7,20.6-43.2-1.3-57c-9.1-5.7-20.1-8.3-30.3-12.2c-4.4-1.6-7.8-3.9-8.1-9c-0.4-4.9,2.3-9.4,7.2-11.5
		c7.5-3.2,14.6-1.8,20.4,3.5c3.5,3.2,5.8,7.5,8.8,11.3c0.7,0.9,1.7,2,2.7,2.3c0.6,0.2,2.2-1,2.4-1.7c1.6-8.1,3-16.2,4.4-24.1
		c-7.7-0.7-14.6-1.4-21.5-1.9c-6.1-0.4-12.3-1-18.4-0.7c-8.3,0.4-15.5,3.9-20.6,10.6c-6.4,8.4-8.8,18.3-8,28.7
		c0.6,8.7,5.2,14.9,13.7,17.9c2.5,0.9,5,1.8,7.5,2.8c5.4,2.2,10.9,4.2,16.1,6.7c6.9,3.4,8.9,9.4,8.1,16.7
		c-0.7,6.6-4.1,11.2-10.5,13.2c-9.2,2.9-17.7,1.9-25.2-4.8c-6.1-5.4-9.6-12.2-11.6-20c-0.3-1.1-1.7-1.9-2.6-2.9
		c-0.5,1.1-1.5,2.2-1.5,3.2C98.6,634.8,98.7,648.3,98.7,662.4z M301,661.4c0.1,0.9-0.1,1.6,0.2,1.8c6.8,3.9,5.6,10.6,5.9,16.8
		c0.2,3.1-1.2,4.1-4.1,4c-4.5-0.2-9-0.2-13.5,0c-3.4,0.2-4.3-1.4-4.2-4.5c0.3-6.5-0.7-13.4,6.3-17.8c-11.1,0-22.3,0-33.4,0
		c-0.3,0.3-0.6,0.7-0.9,1c6.1,2.7,6.5,7.8,6.6,12.9c0.1,18.3,0.1,36.7-0.1,55c-0.1,4.3,0.2,9.3-5.1,11.5c-0.4,0.2-0.3,1.4-0.4,1.9
		c11.3,0,22.4,0,33.4,0c0.2-0.4,0.4-0.7,0.6-1.1c-6.4-2.5-6.7-7.9-6.8-13.3c-0.2-11.5-0.1-23-0.1-34.5c0-0.9,0.4-1.9,0.6-2.8
		c7,0,13.7,0,21,0c0,8.5,0.4,16.6-0.1,24.7c-0.5,9.1,3.5,19.4-7.4,27.1c12.5,0,23.5,0,34.5,0c-7.1-5.5-5.3-12.9-5.3-19.6
		c-0.2-15.7-0.1-31.3,0-47c0-5.6-0.3-11.4,5.5-14.8c0.1-0.1-0.1-0.6-0.2-1.3C323.1,661.4,312.2,661.4,301,661.4z M491,588.4
		c-0.2,0.4-0.4,0.7-0.6,1.1c0.7,0.7,1.5,1.3,2.1,2.1c1.4,1.7,3.8,3.5,3.8,5.3c0.4,8.9,0.4,17.9-0.1,26.9c-0.2,4.5-3.6,6.5-8,6.6
		c-8,0.1-13-4.7-16.3-11.2c-6.6-12.7-7.6-26.1-3.8-39.8c2.2-8,6.2-14.8,15.4-16.6c9.7-1.9,19.5,3.7,24.9,14.3
		c0.8,1.6,1.7,3.2,2.6,4.7c0.5-0.2,0.9-0.4,1.4-0.5c-1-9.1-1.9-18.2-2.8-26.2c-4.9-0.3-9.1-0.1-13.1-0.8c-14-2.5-27.6-2.4-39.6,6.6
		c-5.8,4.4-10.6,9.6-10.6,17.7c0.1,10.3,0,20.6,0.1,31c0,1.6,0.2,3.4,0.8,4.9c5.2,11.8,13.2,21.1,26.5,22.4
		c15.3,1.6,30.9,1.3,46.3,1.7c0.8,0,1.7-0.7,2.6-1.1c-0.5-0.9-0.9-1.9-1.4-2.8c-1.2-2.6-3.2-5.1-3.3-7.8c-0.5-7.6-0.1-15.3-0.2-23
		c-0.1-5.6-0.2-11.1,6.3-13.7c0.2-0.1,0.1-0.9,0.1-1.8C513.1,588.4,502.1,588.4,491,588.4z M511.2,660.7c-4.5,0-8.5,0.2-12.5,0
		c-6-0.4-11.9-1.6-17.8-1.4c-11.9,0.3-22.1,4.9-29.1,14.8c-1.8,2.5-2.9,6.1-3,9.2c-0.4,11.2-0.2,22.3-0.2,33.5
		c0,1.5,0.1,3.1,0.7,4.4c5.1,10.9,12.6,20.2,25,21.5c15.8,1.8,31.9,1.4,47.8,1.9c0.8,0,2.1-0.6,2.3-1.3c0.2-0.6-0.7-1.6-1.1-2.4
		c-1.2-2.4-3.4-4.7-3.5-7.2c-0.5-9.3-0.4-18.6-0.3-28c0-3.8,1.1-7.3,5.3-8.8c0.6-0.2,0.8-1.4,1.3-2.4c-11.6,0-22.8,0-34.9,0
		c1.2,1.4,1.9,2,2.4,2.7c1.6,2.5,4.4,4.9,4.6,7.5c0.6,7.4,0.5,15,0.1,22.4c-0.5,7.6-4.9,10.8-12.2,8.6c-3.3-1-6.8-3.2-9-5.8
		c-10.8-12.3-12.4-39.2-3.6-52.9c4-6.3,9.8-9.3,17.3-8.6c9.7,0.9,15.4,7.1,19.6,15.1c0.8,1.4,1.6,2.9,2.4,4.3
		c0.5-0.2,0.9-0.4,1.4-0.5C513.1,678.3,512.1,669.1,511.2,660.7z M583.6,661.4c-5.1-0.4-9.5-0.5-13.8-1.2
		c-9.4-1.5-18.6-2.3-27.2,2.7c-9.5,5.5-12.4,14.5-12.2,24.7c0.3,9.7,5.6,16.1,14.4,19.7c6.8,2.8,13.6,5.4,20.3,8.3
		c3.9,1.7,5.9,4.9,5.7,9.1c-0.3,4.5-1.9,8.8-6.7,10.1c-3.8,1-7.9,1.9-11.7,1.4c-12.2-1.6-18.1-10.1-21.5-21
		c-0.5-1.5-1.2-2.9-1.8-4.3c-0.4,0.1-0.8,0.3-1.3,0.4c0.8,11.2,1.5,22.3,2.3,33c4.2,0,8-0.1,11.7,0c8.4,0.4,16.9,1.7,25.3,1.2
		c8.9-0.5,16.9-4.2,21.6-12.5c7.6-13.1,6.9-32.2-13.2-39.7c-5.9-2.2-11.9-4.2-17.8-6.6c-3.6-1.5-6.1-4.1-6-8.4
		c0.1-4.4,2.6-7.6,6.6-8.3c3.7-0.7,8.5-1.2,11.4,0.5c4.6,2.8,8.2,7.4,12,11.4c1,1.1,1.6,2.6,2.3,3.9c0.5-0.2,1-0.3,1.5-0.5
		C585.1,677.3,584.3,669,583.6,661.4z M426.5,661.4c-0.5,0.5-0.9,0.9-1.4,1.4c6.9,2.2,7.5,7.4,7.7,12.8c0.2,5.2,0,10.4,0,15.6
		c-4.3-4.1-7.4-8.4-10.3-12.7c-5.6-8.3-5.6-8.3-3.7-16.8c-13.3,0-26.6,0-39.8,0c7.2,5.5,5.3,13.1,5.4,20c0.2,13.5,0.3,27,0,40.5
		c-0.2,7.5,2.3,15.8-5.7,21.9c7,0.5,13.6,1.5,20.8-0.7c-7.1-3.1-6-9.2-6.1-14.5c-0.2-16-0.1-32,0-48c0-1,0.2-2,0.4-4.3
		c3.8,5.1,6.9,9.2,9.9,13.3c7.8,10.8,15.7,21.5,23.4,32.4c1.9,2.8,3.2,6.2,4.3,9.4c1.7,5.2-1.3,8.6-5.3,11.9
		c7.4,1.2,14.4,1.4,21.6-0.1c-5.9-3.5-5.8-8.7-5.8-13.9c0-17.5,0-35,0-52.5c0-5.5,0-11,5.5-14.4c0.1-0.1-0.1-0.6-0.2-1.3
		C440.2,661.4,433.3,661.4,426.5,661.4z M593.4,607.8c-0.6-0.2-1.1-0.3-1.7-0.5c-1.7,3-3.2,6.1-5.1,8.9
		c-5.9,9.1-13.6,14.9-25.2,13.9c-5.7-0.5-8.1-2.6-8.3-8.4c-0.2-7-0.1-14-0.1-21c0-3.2,0-6.5,0-10.3c4.5,0.3,8.9-0.6,11.6,1.1
		c4.6,2.9,8.1,7.6,12.4,11.9c-1.5-10.4-3-20.7-4.6-31.1c-5.8,10.2-8.5,11.6-19.5,9.3c0-3-0.1-6.1,0-9.3c0.1-6.9,2.6-9.4,9.5-9.2
		c10.4,0.3,17.4,5.6,21.7,15c0.7,1.5,1.4,2.9,2.2,4.4c0.5-0.2,1-0.4,1.5-0.6c-1.7-9.3-3.4-18.5-4.9-26.7c-19.7,0-38.7,0-58.4,0
		c6.6,7.8,6.6,7.8,6.6,18.3c0,14.2,0.2,28.3-0.1,42.5c-0.2,7.5,3,16.2-6.4,21.5c0.3,0.4,0.6,0.7,0.9,1.1c19.7,0,39.4,0,59.6,0
		C587.7,628.8,590.5,618.3,593.4,607.8z M192.8,564.5c0,21.1,0.1,41.9-0.1,62.7c0,3.9-1.6,7.6-6.4,8.3c-0.7,0.1-1.2,1.3-2.2,2.5
		c13.4,0,26.1,0,39.2,0c-0.6-1.2-0.7-1.9-1-2c-6.7-1.5-7.6-6.5-7.5-12.2c0-17.8,0-35.6,0-53.5c0-1.9,0.2-3.8,0.3-6
		c7.5,0.6,12.4,3.9,16.1,9.6c0.8,1.3,2.3,2.2,3.5,3.2c0.4-0.3,0.8-0.7,1.2-1c-0.9-5.5-2.1-11-2.7-16.6c-0.4-3.4-1.6-4.4-5-4.4
		c-11.3,0.2-22.6,0.1-34,0.1c-6.1,0-12.2,0-18.6,0c-1.3,7.4-2.5,14.3-3.7,21.2c0.5,0.5,1.1,0.9,1.6,1.4
		C177.8,570.3,183,564.1,192.8,564.5z M242.8,744.1c-8.2-7.2-8.2-7.2-8.2-19c0-16.5,0-33,0-49.5c0-1.7,0.2-3.5,0.4-6
		c3.4,1.2,6.2,1.7,8.6,3.1c2.3,1.3,4.1,3.3,6,5.1c1.7,1.7,3.2,3.6,4.8,5.4c0.4-0.4,0.9-0.7,1.3-1.1c-0.9-5.5-2.1-11.1-2.7-16.6
		c-0.4-3.6-1.9-4.6-5.4-4.6c-16,0.2-32,0.1-48,0.1c-1.4,0-2.9,0.2-4.4,0.4c-1.2,7.3-2.3,14.1-3.4,21c0.5,0.3,1.1,0.7,1.6,1
		c4.5-7.2,9.6-13.4,19.1-13c0.2,0.9,0.5,1.7,0.5,2.5c0,19,0.1,38-0.1,57c0,5.3-0.7,10.5-7.4,11.9c-0.4,0.1-0.6,1-1.2,2.3
		C217.5,744.1,230.1,744.1,242.8,744.1z M340.4,661.3c-0.5,0.4-1,0.8-1.4,1.2c6.6,2.8,7,8.2,7,13.6c0.1,18,0.1,35.9,0,53.9
		c0,4.8-0.1,9.8-5.5,12.3c-0.3,0.1-0.1,1.2-0.2,2c11.1,0,21.9,0,33.7,0c-2.1-2.6-4.1-4.2-5-6.2c-0.9-2.2-1.2-4.8-1.2-7.3
		c-0.1-18.6-0.1-37.3,0-55.9c0-4.6,0.4-9,5.1-11.6c0.3-0.1,0-1.2,0-2C361.9,661.3,351.2,661.3,340.4,661.3z M592.4,681.7
		c2.4,0,4.2,0,6,0c28.3,0,56.7,0,85,0c7.1,0,7.8-1,5.5-8.4c-32.1,0-64.2,0-96.5,0C592.4,676.1,592.4,678.5,592.4,681.7z M98.3,673.3
		c-0.8,8.5-0.8,8.4,6.7,8.4c23.8,0,47.6,0,71.4,0c7.8,0,8.2-0.5,6.3-8.4C154.8,673.3,126.7,673.3,98.3,673.3z"/>
	<path d="M280.1,530.2c-7.2-6.5-10.9-14.3-8.9-24.1c2.7-13,14.2-20.8,28.1-18.9c4.8,0.7,6.5-1.4,6.8-5.4c0.2-2.7,3.3-5.4-0.7-8.5
		c-1.8-1.4,1.2-3.3,3.7-3.4c2.3-0.1,5.2,0.2,6.8-1c3.5-2.8,2.8-6.7-2.2-9.5c-3.2-1.8-3.6-3.9-3.4-6.9c0.4-6.2,0.7-12.5,1.1-19.7
		c4,2,6.9,3.5,10.1,5.1c0.5-1,0.9-2.2,1.5-3.3c2-4,6.3-5.3,10.3-3c6.5,3.7,13.9,1.3,16.9-5.7c1.7-3.9,4.6-7.7-1.5-11.1
		c-2.9-1.6-3.1-11.5-1.2-13.2c5-4.6,13.2-4.5,17.3,0.8c1.9,2.5,2.7,6,4.1,8.9c1.3,2.6,2.5,5.2,4.3,7.4c1.9,2.3,4.5,4.1,7.3,6.5
		c0.5-0.4,1.6-1.1,3-2.1c-5.9-2.9-8.7-13.2-5.3-18.2c2.5-3.7,6.4-3.3,9.9-2.6c4,0.8,5.6,4.4,4.6,7.7c-1.9,6.2,0,10.9,2.3,16.8
		c4.6,11.7,7.1,24.3,3.7,37.1c-2,7.4-4.4,14.8-6.7,22.5c0.8,0.4,1.7,1,2.7,1.4c17.5,5.9,23.1,23.5,12.3,38.3
		c-0.8,1.1-1.7,3.3-1.2,4.2c0.6,1,2.7,1.6,4.2,1.6c15,0.1,29.9,0.1,44.9,0c3.9,0,7.8-0.4,12.4-0.6c-6.5-7.6-10.3-15.9-4.8-25.3
		c5.3-9.1,13.6-12.1,24.5-9.9c-0.5-5.7,5.9-10.8,0.3-16.2c1-5,2.1-9.8,3.1-14.6c1.4-6.9,3.8-9,11-9.7c7.4-0.7,16.5-7.9,18.5-14.6
		c-6.7-1.8-8-15.6-1.5-18c2.5-0.9,6.4-0.3,8.7,1.2c2,1.4,2.6,4.9,3.9,7.7c-0.6,0.5-1.7,1.5-3.4,2.9c2,0.8,3.7,2.2,5,1.9
		c2.3-0.5,4-2,6.7,0.2c5.7,4.6,12,8.5,13.1,16.7c0.5,3.9-0.4,7-4.7,8c-2.8,0.7-3.5,2.4-4.1,5.2c-0.8,3.7-3.3,7-5.3,11.1
		c3.2,0,6.7,0.3,10.1-0.1c3.3-0.4,6.5-1.5,10.2-1.7c-2.6,6.5-7.1,12.1-5.1,20.2c1.7-0.5,4-0.4,5-1.5c6.7-7.2,14.7-10,24.4-7.9
		c0.6,0.1,1.3,0,2.6,0c0-5.2,5.2-10,0.2-15.4c-0.5-0.5,0.2-2.1,0.3-3.2c0.6-4,0.8-8.1,2.1-11.8c0.7-2.1,3.3-5.3,4.9-5.2
		c5.1,0.3,7.6-2.6,10.5-5.9c3.2-3.5,7.1-6.3,10.2-9.8c2.7-3,1.7-8.2-0.7-11.6c-1.4-2.1-2.9-5.5-2.1-7.4c2.2-5.6,1.1-9.5-3.8-12.2
		c4-1.1,7.5-2.1,11.1-2.9c5.4-1.3,12.4,4.6,12.2,10.2c-0.1,1.4,0.8,2.9,1.2,4.4c0.4,1.5,1.5,3.3,1,4.4c-1.8,4.2,1,6,3.9,6.5
		c11.9,2.3,15.7,12.9,21.7,21c3.4,4.6,1.2,9.6-4.3,12.2c-2.6,1.2-3.6,2.6-4.2,5.3c-0.7,2.9-2.9,5.5-4.5,8.5c1.3,0.7,3.3,1.8,5.4,3
		c-0.1,0.5-0.2,0.9-0.4,1.4c-2.9,0-5.9,0-9.3,0c-1.2,3.8-2.2,7.3-3.4,11c2.1,1.8,4.1,3.5,6,5.2c13.4-9.5,26.9-9.3,35,0.6
		c8.7,10.5,7,22.7-5.2,34.3c4.9,0.8,9.4,1.8,13.9,2.2c4.6,0.4,9.2,0.3,13.8,0.2c4.8-0.1,9.6-0.4,14.7-0.6c0,3.5,0,6.2,0,9.1
		c-51.2,1.1-102.4,0.4-153.6,0.5c-51.7,0.1-103.3,0-155,0c-51.7,0-103.3,0-155,0c-51.6,0-103.3,0-155.2,0c0-4.2,0-8.2,0-12.7
		c3.9,3.2,7.3,4.2,10.3-0.5c0.2-0.3,2.6,0.7,3.9,1.3c1.2,0.6,2.3,2.1,3.5,2.1c14.2,0.3,28.5,0.5,42.7,0.4
		c14.2-0.1,28.3-0.8,42.5-0.7c11.6,0,23.2,0.9,34.8,1c15.1,0.2,30.1,0,45.2,0C279.9,531.4,280,530.8,280.1,530.2z M648,519
		c-0.1,5.4,4.6,5.1,7,6.6c1.2-2.8,2.3-5.2,3.3-7.6c-0.6,2.8-1.2,5.7-1.8,8.5c12.3,1.6,18.2-5.1,20.3-10.9c2.7-7.4-0.4-15.8-6.8-19.9
		c-6.4-4-15.9-2.6-20.7,3.3c6.6,3.7,13.1,7.3,19,10.6c-0.4,0.3-1.7,1.1-3.4,2.2c2.6,1.5,4.5,2.6,7.7,4.4c-4.1-1-6.8-1.6-9.7-2.3
		c0,2.1,0,3.4,0,5.3c-0.9-1.7-1.5-2.8-2.4-4.5c-1,1.5-1.6,2.6-2.3,3.6c-0.6-1-1.3-2.1-1.9-3.1c-1.7,0.4-3.7,0.9-5.6,1.4
		c0.4-1.4,0.8-2.8,1.2-4.1c-2.8,0-5.4,0-9.4,0C645,515.2,646.5,517.1,648,519z M309.7,530.6c13.6,1.3,57.7,2.6,62.1-1.8
		c-5.2-5.7-8.9-12-7.8-20.1c-3.3,0.1-5.2,3-6.2,8.2c-7.6,5.3-11.7-4.2-18.3-3.4c-0.8,0.1-1.7-0.4-2.4-0.9c-0.9-0.6-1.6-1.3-2.4-2
		c0.7-0.8,1.4-1.7,2.2-2.3c1.4-0.9,3-1.5,5.2-2.5c-10.2-6.1-13.1-19.9-27.8-21.2c0,4.3-1.3,8.7,0.2,11.6
		C321.7,509.6,320.8,519,309.7,530.6z M588.1,488.4c7.2,5.1,12.3,11.3,12.7,20.2c0.4,8.9-4.1,15.6-10.5,21.9c19.5,0,39.1,0,60,0
		c-8.9-5.2-11.7-13.2-14.1-21.9c1.4,6.4-4.4,7-6.3,9.1c0.2,1.8,0.9,3.4,0.4,3.9c-3.4,3.5-7,3-11.6-1.7c0.8-1.1,1.7-2.3,2.6-3.4
		c2.3-2.9,2.3-12.1-0.5-14.1c-9.8-6.8-19.8-13.3-30.2-20.2C589.5,484.7,588.8,486.5,588.1,488.4z M300.2,493.2
		c-8.7-3-18.7,1.4-22.8,10.8c-3.2,7.1-0.4,17.5,6.2,21.7c2.7,1.7,6,2.6,8.9,4c2.5,1.2,4.4-1.1,6.9-1c2.8,0.1,6.2-2,8.5-4
		c7.3-6.4,7.7-16.5,1.3-26c-4.2,4.8-8.3,9.6-12.4,14.2c-0.6,0.7-1.7,1-2.6,1.5c1.6-2.8-5.1,0.8-2.3-3l1.4-4
		C296.8,503.3,300.4,499.3,300.2,493.2z M491.9,491.4c-2.7,3.5-2.6,5.7,0.9,8.2c5.2,3.8,8.4,9.5,7.3,16c-0.9,5.4-3.5,10.5-5.3,15.6
		c13.7,0,28.4,0,43.2,0c-2.8-5.2-5.3-9.8-8.5-15.8c0,6.8-4,8.9-8.3,8.6c-4-0.3-7.8-2.5-11.8-3.9c0.2-0.5,0.3-1.1,0.5-1.6
		c1.1-0.3,2.2-0.6,3.3-0.9c1.3-0.3,2.6-0.5,3.9-1c3.6-1.2,4.6-5.4,1.4-7.6C509.8,502.9,500.8,497.2,491.9,491.4z M390.2,492.8
		c1.2,2.2,1.7,4.2,2.9,5.1c3.3,2.6,3.3,4.9,0,7.4c-1,0.8-2,1.7-3.1,2.7c1,1.4,1.9,2.6,2.4,3.4c-0.7,1.4-1.3,2.7-1.3,2.6
		c-5.4,1.4-9.9,2.6-14.5,3.6c-1,0.2-2.2-0.6-3.3-0.9c0.3-0.9,0.5-1.8,0.9-2.6c0.9-1.5,1.9-3,3.1-4.8c-2.2-0.3-3.8-1.1-5-0.6
		c-1.3,0.4-3.1,2.1-3,3.1c1.4,13.7,13.4,20.2,23.9,17c8.4-2.6,14.1-9.6,13.8-18.9C406.9,501.6,400.2,494.4,390.2,492.8z
		 M349.9,443.7c-8.5,0.4-16.6,0.7-24.6,1.3c-1.2,0.1-2.6,2-3.2,3.4c-1.4,2.9-2.4,6-3.5,9.1c-0.3,0.7-0.6,1.6-0.5,2.3
		c0.5,5,1.2,10,1.8,15.3c2.2,0,5.3,0,8.7,0c-1.6-4.8,0.7-7.8,4.7-9c10.2-3.1,14.7-10.3,16.1-20.3
		C349.4,445.1,349.7,444.5,349.9,443.7z M483.8,519.7c-3.3-2.7-6-1.5-8.5,2c0.4-1.8,1.2-3.1,1.7-4.6c0.5-1.5,0.6-3.2,0.9-5
		c1.5-0.2,3.1-0.3,4.6-0.5c0.5-1.6,0.9-3.1,1.4-4.7c0.4-1.6,0.8-3.1,1.1-4.6c-6.2-2.8-14.2-0.2-17.1,5.4c-4.1,8-1,17,6.4,20.4
		c7.2,3.3,15.8-0.3,18.9-6.1c3.6-6.9,1.6-14.7-5.4-18.5C486.5,508.9,485.2,514.2,483.8,519.7z M492.9,465.8
		c-5.1,6.7,0.1,12.5,1.6,19.3c5.6,1.3,11.9,2.7,18.1,4.1c0.1-0.3,0.2-0.7,0.3-1c-2.8-2.2-5.6-4.5-9.2-7.3c6.4-4.8,11.8-8.9,17.4-13
		c-0.6-3.1-1.3-6.3-1.9-9.1C509.5,458.8,502.9,468.2,492.9,465.8z M614.5,480.7c0.2-0.4,0.5-0.8,0.7-1.2c-3-4.1-6.1-8.1-8.9-12.3
		c-3.7-5.6-2.2-8.7,4.3-10.2c4.5-1,8.9-2.1,13.9-3.3c-1-2.4-1.7-4.1-2.4-5.9c-7.4,2.9-14.5,5.2-21,8.5c-3.4,1.8-5.9,3-9-0.7
		c-1.1,4.3-2.1,8-3,11.6c1.9,0.8,3.5,1.5,5.2,2.3c-0.4,1.8-0.8,3.3-1.2,5.1C600.4,476.7,607.4,478.7,614.5,480.7z M587,495.4
		c-1.7,5.6-3.1,10.2-4.6,15c0.8,0.7,1.9,1.7,3.1,2.6c-0.2,0.3-0.3,0.5-0.5,0.8c-1.6-0.6-3.1-1.1-5.4-1.9c0.7,2.8,1.2,5,1.8,7.2
		c-0.3,0.1-0.6,0.2-0.9,0.3c-0.8-2.2-1.6-4.4-2.5-6.8c-1.2,1.3-2.3,2.5-3.8,4.1c-0.1-1.8-0.2-2.9-0.2-4.1c-0.6-0.1-1.1-0.2-1.7-0.3
		c-0.5,2-1,4.1-1.5,6.1c-0.6,2.3-3.6,4.9-0.3,7c1.9,1.2,4.6,1.4,6.9,1.4c6.8,0,13.7-5,15.7-10.9C595.8,508.3,594.2,501.9,587,495.4z
		 M537.1,516.8c0.2,6.5,3.8,10.1,8.8,11.7c4.7,1.5,9.8,1.7,13.7-2.4C554.8,516.3,546.1,516.9,537.1,516.8z M573.8,504.2
		c1.5-0.1,4.3,0.5,4.8-0.4c1.8-2.9,2.9-6.3,4.3-9.6c-3.3-0.4-6.6-0.8-9.9-1.2c-0.3,0-0.7,0.1-0.9,0.3c-2.7,1.7-5.4,3.5-8.1,5.2
		c1.9,2.6,3.7,5.3,5.7,7.7c0.7,0.8,2.2,1.1,3.3,1.6C573.4,506.5,573.7,505.1,573.8,504.2z M548.9,486.2c-5.7-0.7-11-1.3-16.3-1.9
		c-0.3,0.7-0.7,1.4-1,2.1c2.1,1.8,4.2,3.5,6.3,5.3c-0.5,2.3-1.1,5.1-1.9,8.8c5-2.1,9-3.8,13-5.5
		C548.9,492.3,548.9,489.7,548.9,486.2z M493.8,487.7c-0.2,0.4-0.3,0.8-0.5,1.2c8.4,5.6,16.7,11.2,25.1,16.7
		c0.5-0.4,0.9-0.8,1.4-1.2c-2.1-4-3.3-9.9-6.6-11.6C507.4,489.7,500.3,489.2,493.8,487.7z M592.4,477.9c-0.2,0.4-0.4,0.7-0.6,1.1
		c7.5,5,15,10.1,22.7,15c0.5,0.3,2.1-0.8,3.1-1.3c-1.5-2.9-2.4-7.2-4.7-8.3C606.4,481.5,599.3,480,592.4,477.9z M341,501.5
		c0.3-0.2,0.7-0.4,1-0.5c-0.4-3.1-0.7-6.1-1.2-9.2c-1.2-8.7-1.7-9-9.9-6.7c-0.6,0.2-1.1,0.5-2.2,1C333,491.5,337,496.5,341,501.5z
		 M335.8,482.1c-3.5-5.2-17.2-6.6-19.6-1.9C322.4,483.1,328.5,486.5,335.8,482.1z M313,440.6c0,5.5,0,10.5,0,15.6
		c6-0.7,7.6-3.6,7.5-12.5C318.3,442.7,316.1,441.8,313,440.6z M636.7,491.5c-1.3,3.4-3.1,6.2-3.2,9c-0.1,2.2,1.9,4.5,3,6.7
		c0.6-0.2,1.2-0.4,1.7-0.6c-1.8-3.5,6-6.2-0.3-10.3c1.7,0.2,2.8,0.3,5,0.5C640.3,494.5,638.7,493.2,636.7,491.5z M638.7,475.8
		c-0.5-0.3-1-0.7-1.6-1c-2.8,2.5-5.6,5.1-9.1,8.1c2.6,1.7,4.4,2.8,7,4.5C636.4,483,637.6,479.4,638.7,475.8z M312,478.9
		c-0.5-0.1-1-0.1-1.6-0.2c-5.5,10.3-5.5,10.3,0.2,12.3C311.1,486.8,311.5,482.9,312,478.9z M538.1,511.8c0,0.3-0.1,0.6-0.1,0.9
		c2.4,0.3,4.8,0.6,6,0.8c1.2-1.2,1.8-1.7,2.6-2.4c-2-1.7-4-3.5-5.9-5.2c-4.2,3.2-2.1,4.6,1.3,6C540.6,511.8,539.3,511.8,538.1,511.8
		z M548.8,500.7c-2.6,1.1-4.8,2.1-7.7,3.4c2.8,2.4,4.9,4,7.7,6.4C548.8,506.7,548.8,504.1,548.8,500.7z M357.9,508.8
		c-2.9,2.2-5.2,4-8,6.1c-0.8-2.6-1.2-3.8-1.5-4.9c-1.8,3.7-0.1,5.6,3.1,5.9C355.8,516.4,357.5,513.7,357.9,508.8z M561.4,517.2
		c5-2.9,5-2.9-1.3-11.4C560.5,509.5,560.9,513.2,561.4,517.2z M358.8,472.3c-4.1,1.9-7.1,3.3-10.5,4.9
		C354.7,480.3,355.8,479.8,358.8,472.3z M371,504.1c3.1,0.5,5.7,0.9,8.4,1.3c0.2-0.3,0.3-0.6,0.5-0.9c-2.1-1.5-4.3-3-6.7-4.7
		C372.3,501.5,371.7,502.6,371,504.1z M299.8,503.3c0.3,0.2,0.6,0.3,0.9,0.5c1.7-1.9,3.4-3.8,5-5.8c0.4-0.5,0.1-1.7,0.1-2.5
		c-0.9,0.3-2.2,0.3-2.6,0.9C301.8,498.6,300.9,501,299.8,503.3z M332.8,436.2c-2.6-1.3-4.2-2.6-5.7-2.5c-1.2,0.1-2.2,2-3.2,3.1
		c0.3,0.3,0.5,0.7,0.8,1C326.9,437.4,329.1,437,332.8,436.2z"/>
	<path d="M288.7,590c9.8,11.9,15,25.8,19.1,40.3c0.5,0,0.9,0,1.4,0c1.5-3.9,3.3-7.8,4.6-11.8c5.5-17.3,11.1-34.5,16.3-51.9
		c1-3.3,0.1-7.1,0.1-11.2c9.3,0,19.3,0,30,0c-4.7,6.6-0.7,12.7,1,18.8c4.5,16.7,9.3,33.3,14.1,49.9c0.9,3.1,2.4,6,3.7,9
		c0.6,0,1.1,0,1.7-0.1c0.5-2.1,1.4-4.1,1.4-6.2c0.1-20.2,0.3-40.3-0.2-60.5c-0.1-3.5-2.8-7-4.4-10.8c12.3,0,25.6,0,39.1,0
		c0,0,0.3,0.4,0.2,0.5c-4.3,5.6-1.2,10,2.2,14.5c3.6,4.8,6.9,9.8,11,14.5c-1-10,4.7-21.1-7.1-29.7c8.2,0,15,0,21.8,0
		c0.1,0.5,0.3,1,0.2,1.1c-6,4.1-5.5,10.4-5.5,16.4c0,16.5-0.1,33,0,49.5c0,5.4-0.3,11.2,5.6,15.2c-6.8,0-13.7,0-20.8,0
		c0-0.5-0.1-1.3,0.2-1.7c5.7-5.5,7.2-9.1,3-15.5c-11.1-16.7-23.1-32.9-34.7-49.3c-0.5,0.2-1.1,0.3-1.6,0.5c0,1.7,0,3.4,0,5.1
		c0,14.7-0.1,29.3,0,44c0,6-0.7,12.5,5.7,17.1c-16.5,0-33,0-49.9,0c0.3-1,0.3-1.8,0.7-2.2c5.3-4.4,6.4-8.1,3.4-14.2
		c-4-8-10.2-13.5-19.4-14.8c-2.9-0.4-4.7,0.3-5.5,3.4c-1.1,4.7-2.6,9.3-3.9,13.9c-1.4,5-2,9.9,4.4,12.4c-3.4,2.5-41.6,3.1-47.5,1.2
		c-0.1-0.3-0.2-0.9-0.1-0.9c5.3-3.3,4.6-8,2.4-12.5c-3.7-7.6-7.7-15.1-11.8-22.5c-0.6-1.1-2.4-1.5-3.7-2.2c-0.7,1.3-1.9,2.7-1.9,4
		c-0.2,7.8-0.5,15.7,0.2,23.5c0.3,3.7,2.8,7.1,4.4,11c-10.1,0-21.1,0-32,0c6.7-4.7,5.5-11.3,5.6-17.5c0.1-14.3,0.2-28.7,0-43
		c-0.2-7.5,2.6-16.1-7.1-21.9c2.9-0.3,4.3-0.5,5.7-0.5c14.8,0,29.7,0,44.5,0c0.5,0,1,0,1.5,0c6.3,0.3,12.8,0.7,15.6,7.5
		c2.9,6.9,0.5,13.2-4,18.5C295.7,584.2,292.3,586.8,288.7,590z M263.9,590.5c0.5,0.4,1.1,0.8,1.6,1.2c4-2.9,8.6-5.4,12-8.9
		c3.8-3.9,4.6-9.1,2.6-14.4c-1.7-4.4-5.4-5.6-9.7-5.1c-3.2,0.4-6.5,1.1-6.5,5.4C263.9,575.9,263.9,583.2,263.9,590.5z M345.3,600.9
		c-2.6-9.4-5-18.3-7.4-27.1c-0.4,0-0.8,0-1.2,0.1c-2,7.1-4,14.2-5.8,21.1C335.7,597,340.1,598.8,345.3,600.9z"/>
	<path d="M657.8,599.7c11.2,13.7,17.8,29.4,22.5,46.1c1.3,4.5,2.9,8.9,7.7,11.2c0.8,0.4,1.1,1.8,1.6,2.7c-1,0.4-1.9,1.3-2.9,1.3
		c-13.6,0.1-27.3,0.1-42,0.1c0.8-1.8,1.1-3.6,1.9-3.8c4.2-1.5,4.6-4.8,3.6-8.1c-2.3-6.8-4.7-13.5-7.8-19.9
		c-3-6.3-6.9-12.1-10.2-17.9c-4.1,0.2-5.5,1.9-5.4,5.4c0.2,9.7,0.1,19.3,0.3,29c0.1,4.7,0.3,9.5,5.8,11.6c0.6,0.2,1.2,2.1,1,2.3
		c-0.7,0.7-1.9,1.3-2.9,1.3c-6,0.1-12,0.1-18,0.1c-6.7,0-13.3,0-21.2,0c1-1.8,1.4-3.6,2.3-4c4.1-1.8,5-5.3,5.1-9
		c0.3-14.8,0.6-29.6,0.6-44.5c0-11.7-0.2-23.3-0.6-35c-0.1-3.9-1-7.6-5.4-9.3c-0.6-0.2-1.4-1.5-1.3-2.2c0.1-0.6,1.3-1.4,2-1.5
		c1.8-0.2,3.7-0.1,5.5-0.1c18.8,0.1,37.6,0.1,56.5,0.3c7.7,0.1,15.5,1,18.7,9.5c3.2,8.6,0.7,16.5-5.2,23.2
		C666.3,592.4,662.1,595.7,657.8,599.7z M627,601c7.3-2,12.9-5.1,17-10.3c4.5-5.6,5.5-12.1,2.9-18.8c-1.8-4.7-6.3-6.6-12.5-5.8
		c-3.4,0.4-7.2,1.3-7.3,5.4C626.7,581.1,627,590.7,627,601z"/>
	<path d="M98.7,662.4c0-14.1,0-27.6,0.1-41.1c0-1.1,1-2.2,1.5-3.2c0.9,1,2.3,1.8,2.6,2.9c2,7.8,5.5,14.5,11.6,20
		c7.5,6.7,16,7.7,25.2,4.8c6.4-2,9.7-6.7,10.5-13.2c0.8-7.3-1.2-13.4-8.1-16.7c-5.2-2.5-10.7-4.5-16.1-6.7c-2.5-1-5-1.9-7.5-2.8
		c-8.5-3-13-9.2-13.7-17.9c-0.8-10.4,1.6-20.3,8-28.7c5.1-6.7,12.3-10.3,20.6-10.6c6.1-0.3,12.3,0.3,18.4,0.7
		c6.9,0.5,13.8,1.2,21.5,1.9c-1.4,7.9-2.8,16-4.4,24.1c-0.1,0.7-1.7,1.9-2.4,1.7c-1-0.3-2-1.4-2.7-2.3c-2.9-3.8-5.3-8.1-8.8-11.3
		c-5.8-5.4-12.9-6.7-20.4-3.5c-4.9,2.1-7.6,6.6-7.2,11.5c0.4,5.1,3.8,7.3,8.1,9c10.2,3.8,21.3,6.5,30.3,12.2
		c22,13.8,22.3,41.3,1.3,57c-15.2,11.3-32.3,15.2-51,11C110.3,659.7,104.2,657.3,98.7,662.4z"/>
	<path d="M301,661.4c11.3,0,22.2,0,33,0c0.1,0.7,0.3,1.3,0.2,1.3c-5.8,3.5-5.5,9.2-5.5,14.8c0,15.7-0.1,31.3,0,47
		c0.1,6.7-1.7,14.1,5.3,19.6c-11,0-22,0-34.5,0c10.8-7.7,6.8-17.9,7.4-27.1c0.5-8.1,0.1-16.2,0.1-24.7c-7.3,0-14.1,0-21,0
		c-0.2,0.9-0.6,1.9-0.6,2.8c0,11.5-0.1,23,0.1,34.5c0.1,5.3,0.4,10.7,6.8,13.3c-0.2,0.4-0.4,0.7-0.6,1.1c-11,0-22.1,0-33.4,0
		c0.1-0.5,0-1.7,0.4-1.9c5.3-2.3,5.1-7.2,5.1-11.5c0.2-18.3,0.2-36.6,0.1-55c0-5.1-0.5-10.3-6.6-12.9c0.3-0.3,0.6-0.7,0.9-1
		c11.1,0,22.3,0,33.4,0c-6.9,4.5-6,11.4-6.3,17.8c-0.2,3.1,0.8,4.6,4.2,4.5c4.5-0.2,9-0.1,13.5,0c2.9,0.1,4.3-0.9,4.1-4
		c-0.3-6.2,0.9-12.9-5.9-16.8C300.9,663.1,301,662.3,301,661.4z"/>
	<path d="M491,588.4c11,0,22.1,0,33.2,0c0,0.9,0.1,1.7-0.1,1.8c-6.5,2.6-6.4,8.1-6.3,13.7c0.1,7.7-0.2,15.3,0.2,23
		c0.2,2.7,2.2,5.2,3.3,7.8c0.4,1,0.9,1.9,1.4,2.8c-0.9,0.4-1.7,1.1-2.6,1.1c-15.4-0.4-31-0.2-46.3-1.7
		c-13.3-1.3-21.3-10.6-26.5-22.4c-0.6-1.5-0.8-3.2-0.8-4.9c-0.1-10.3-0.1-20.6-0.1-31c-0.1-8.1,4.8-13.3,10.6-17.7
		c12-9,25.6-9.1,39.6-6.6c4,0.7,8.2,0.5,13.1,0.8c0.8,7.9,1.8,17.1,2.8,26.2c-0.5,0.2-0.9,0.4-1.4,0.5c-0.9-1.6-1.8-3.1-2.6-4.7
		c-5.4-10.6-15.2-16.2-24.9-14.3c-9.2,1.8-13.2,8.6-15.4,16.6c-3.8,13.6-2.8,27.1,3.8,39.8c3.4,6.5,8.3,11.3,16.3,11.2
		c4.4-0.1,7.8-2,8-6.6c0.4-8.9,0.4-17.9,0.1-26.9c-0.1-1.8-2.4-3.6-3.8-5.3c-0.6-0.8-1.4-1.4-2.1-2.1
		C490.6,589.2,490.8,588.8,491,588.4z"/>
	<path d="M511.2,660.7c0.9,8.4,1.9,17.6,2.9,26.7c-0.5,0.2-0.9,0.4-1.4,0.5c-0.8-1.4-1.6-2.8-2.4-4.3c-4.3-8-9.9-14.2-19.6-15.1
		c-7.6-0.7-13.3,2.3-17.3,8.6c-8.8,13.7-7.1,40.6,3.6,52.9c2.3,2.6,5.7,4.8,9,5.8c7.3,2.2,11.8-0.9,12.2-8.6
		c0.5-7.5,0.5-15-0.1-22.4c-0.2-2.6-2.9-5-4.6-7.5c-0.5-0.7-1.1-1.3-2.4-2.7c12.1,0,23.2,0,34.9,0c-0.5,1-0.7,2.2-1.3,2.4
		c-4.2,1.5-5.3,5-5.3,8.8c-0.1,9.3-0.2,18.7,0.3,28c0.1,2.4,2.3,4.8,3.5,7.2c0.4,0.8,1.3,1.8,1.1,2.4c-0.2,0.6-1.5,1.3-2.3,1.3
		c-16-0.5-32-0.2-47.8-1.9c-12.4-1.4-19.9-10.6-25-21.5c-0.6-1.3-0.7-2.9-0.7-4.4c0-11.2-0.2-22.3,0.2-33.5c0.1-3.1,1.2-6.6,3-9.2
		c7-10,17.2-14.5,29.1-14.8c5.9-0.2,11.9,1,17.8,1.4C502.7,660.9,506.7,660.7,511.2,660.7z"/>
	<path d="M583.6,661.4c0.7,7.5,1.5,15.8,2.3,24.2c-0.5,0.2-1,0.3-1.5,0.5c-0.8-1.3-1.3-2.8-2.3-3.9c-3.9-4-7.4-8.6-12-11.4
		c-2.9-1.7-7.7-1.2-11.4-0.5c-4,0.8-6.5,3.9-6.6,8.3c-0.1,4.3,2.4,6.9,6,8.4c5.8,2.4,11.8,4.4,17.8,6.6
		c20.2,7.5,20.8,26.6,13.2,39.7c-4.7,8.2-12.8,11.9-21.6,12.5c-8.4,0.5-16.9-0.8-25.3-1.2c-3.7-0.2-7.4,0-11.7,0
		c-0.7-10.7-1.5-21.9-2.3-33c0.4-0.1,0.8-0.3,1.3-0.4c0.6,1.4,1.3,2.8,1.8,4.3c3.4,10.9,9.3,19.4,21.5,21c3.8,0.5,7.9-0.4,11.7-1.4
		c4.8-1.3,6.4-5.6,6.7-10.1c0.3-4.3-1.8-7.5-5.7-9.1c-6.7-2.9-13.6-5.5-20.3-8.3c-8.8-3.6-14.2-10.1-14.4-19.7
		c-0.3-10.2,2.7-19.1,12.2-24.7c8.7-5.1,17.9-4.3,27.2-2.7C574.1,660.9,578.5,661,583.6,661.4z"/>
	<path d="M426.5,661.4c6.8,0,13.7,0,20.5,0c0.1,0.7,0.3,1.2,0.2,1.3c-5.5,3.4-5.5,8.9-5.5,14.4c0,17.5,0,35,0,52.5
		c0,5.2-0.1,10.4,5.8,13.9c-7.2,1.5-14.1,1.4-21.6,0.1c4-3.3,7-6.8,5.3-11.9c-1.1-3.3-2.3-6.6-4.3-9.4
		c-7.6-10.9-15.5-21.6-23.4-32.4c-3-4.1-6.1-8.2-9.9-13.3c-0.2,2.3-0.4,3.3-0.4,4.3c0,16-0.2,32,0,48c0.1,5.3-1,11.4,6.1,14.5
		c-7.2,2.3-13.8,1.2-20.8,0.7c8-6.1,5.5-14.4,5.7-21.9c0.3-13.5,0.2-27,0-40.5c-0.1-6.9,1.8-14.5-5.4-20c13.3,0,26.5,0,39.8,0
		c-1.9,8.5-1.9,8.5,3.7,16.8c3,4.4,6,8.7,10.3,12.7c0-5.2,0.1-10.4,0-15.6c-0.2-5.3-0.8-10.6-7.7-12.8
		C425.5,662.3,426,661.8,426.5,661.4z"/>
	<path d="M593.4,607.8c-2.8,10.5-5.7,20.9-8.3,30.6c-20.3,0-39.9,0-59.6,0c-0.3-0.4-0.6-0.7-0.9-1.1c9.4-5.3,6.2-13.9,6.4-21.5
		c0.4-14.1,0.1-28.3,0.1-42.5c0-10.4,0-10.4-6.6-18.3c19.8,0,38.7,0,58.4,0c1.5,8.2,3.2,17.5,4.9,26.7c-0.5,0.2-1,0.4-1.5,0.6
		c-0.7-1.5-1.5-2.9-2.2-4.4c-4.2-9.3-11.3-14.7-21.7-15c-6.9-0.2-9.4,2.3-9.5,9.2c-0.1,3.1,0,6.3,0,9.3c11,2.3,13.7,1,19.5-9.3
		c1.5,10.4,3,20.7,4.6,31.1c-4.3-4.3-7.9-8.9-12.4-11.9c-2.7-1.7-7.1-0.8-11.6-1.1c0,3.8,0,7.1,0,10.3c0,7-0.1,14,0.1,21
		c0.2,5.8,2.6,7.9,8.3,8.4c11.6,1,19.3-4.8,25.2-13.9c1.9-2.9,3.4-5.9,5.1-8.9C592.2,607.5,592.8,607.7,593.4,607.8z"/>
	<path d="M192.8,564.5c-9.8-0.3-15,5.9-19.5,13.2c-0.5-0.5-1.1-0.9-1.6-1.4c1.2-6.9,2.4-13.8,3.7-21.2c6.4,0,12.5,0,18.6,0
		c11.3,0,22.6,0.1,34-0.1c3.4-0.1,4.6,1,5,4.4c0.6,5.6,1.8,11.1,2.7,16.6c-0.4,0.3-0.8,0.7-1.2,1c-1.2-1.1-2.6-1.9-3.5-3.2
		c-3.7-5.6-8.6-9-16.1-9.6c-0.1,2.2-0.3,4.1-0.3,6c0,17.8,0.1,35.6,0,53.5c0,5.7,0.8,10.7,7.5,12.2c0.3,0.1,0.4,0.8,1,2
		c-13.1,0-25.7,0-39.2,0c1.1-1.2,1.6-2.4,2.2-2.5c4.9-0.7,6.4-4.4,6.4-8.3C192.9,606.4,192.8,585.6,192.8,564.5z"/>
	<path d="M242.8,744.1c-12.7,0-25.3,0-38.6,0c0.6-1.2,0.8-2.2,1.2-2.3c6.7-1.3,7.4-6.6,7.4-11.9c0.2-19,0.1-38,0.1-57
		c0-0.8-0.3-1.6-0.5-2.5c-9.5-0.5-14.6,5.8-19.1,13c-0.5-0.3-1.1-0.7-1.6-1c1.1-6.9,2.2-13.7,3.4-21c1.6-0.1,3-0.4,4.4-0.4
		c16,0,32,0.1,48-0.1c3.6,0,5,1,5.4,4.6c0.7,5.6,1.8,11.1,2.7,16.6c-0.4,0.4-0.9,0.7-1.3,1.1c-1.6-1.8-3.1-3.7-4.8-5.4
		c-1.9-1.8-3.8-3.8-6-5.1c-2.4-1.3-5.2-1.9-8.6-3.1c-0.2,2.5-0.4,4.2-0.4,6c0,16.5,0,33,0,49.5C234.6,736.9,234.6,736.9,242.8,744.1
		z"/>
	<path d="M340.4,661.3c10.8,0,21.5,0,32.4,0c0,0.8,0.2,1.9,0,2c-4.7,2.6-5.1,7-5.1,11.6c0,18.6,0,37.3,0,55.9c0,2.5,0.2,5.1,1.2,7.3
		c0.9,2,2.8,3.6,5,6.2c-11.8,0-22.6,0-33.7,0c0.1-0.8-0.1-1.9,0.2-2c5.5-2.5,5.5-7.6,5.5-12.3c0.1-18,0.1-35.9,0-53.9
		c0-5.4-0.4-10.8-7-13.6C339.5,662,339.9,661.7,340.4,661.3z"/>
	<path d="M592.4,681.7c0-3.2,0-5.6,0-8.4c32.3,0,64.4,0,96.5,0c2.3,7.3,1.6,8.4-5.5,8.4c-28.3,0-56.7,0-85,0
		C596.6,681.7,594.8,681.7,592.4,681.7z"/>
	<path d="M98.3,673.3c28.4,0,56.4,0,84.5,0c1.9,7.9,1.4,8.4-6.3,8.4c-23.8,0-47.6,0-71.4,0C97.5,681.7,97.5,681.8,98.3,673.3z"/>
	<path class="st0" d="M309.7,530.6c11.1-11.6,12-21,4.8-34.3c-1.5-2.9-0.2-7.3-0.2-11.6c14.7,1.3,17.6,15.1,27.8,21.2
		c-2.1,1-3.7,1.6-5.2,2.5c-0.9,0.5-1.5,1.5-2.2,2.3c0.8,0.7,1.5,1.4,2.4,2c0.7,0.4,1.6,1,2.4,0.9c6.6-0.7,10.7,8.7,18.3,3.4
		c1-5.1,2.9-8,6.2-8.2c-1.1,8.1,2.6,14.4,7.8,20.1C367.4,533.2,323.3,531.9,309.7,530.6z"/>
	<path class="st0" d="M588.1,488.4c0.7-1.9,1.4-3.6,2.4-6.2c10.4,6.9,20.4,13.4,30.2,20.2c2.9,2,2.9,11.2,0.5,14.1
		c-0.9,1.1-1.8,2.3-2.6,3.4c4.5,4.7,8.2,5.2,11.6,1.7c0.5-0.5-0.2-2.1-0.4-3.9c1.8-2.1,7.6-2.7,6.3-9.1c2.4,8.6,5.2,16.7,14.1,21.9
		c-20.9,0-40.4,0-60,0c6.4-6.3,10.9-13,10.5-21.9C600.4,499.6,595.3,493.5,588.1,488.4z"/>
	<path class="st0" d="M300.2,493.2c0.2,6.1-3.4,10.1-6.9,14.2l-1.4,4c-2.9,3.8,3.9,0.2,2.3,3c0.9-0.5,2-0.8,2.6-1.5
		c4.2-4.7,8.2-9.4,12.4-14.2c6.5,9.5,6,19.6-1.3,26c-2.3,2.1-5.7,4.1-8.5,4c-2.5-0.1-4.4,2.2-6.9,1c-2.9-1.4-6.2-2.2-8.9-4
		c-6.5-4.1-9.3-14.5-6.2-21.7C281.5,494.6,291.5,490.3,300.2,493.2z"/>
	<path class="st0" d="M491.9,491.4c8.9,5.9,17.9,11.6,26.6,17.6c3.1,2.2,2.2,6.4-1.4,7.6c-1.3,0.4-2.6,0.6-3.9,1
		c-1.1,0.3-2.2,0.6-3.3,0.9c-0.2,0.5-0.3,1.1-0.5,1.6c3.9,1.4,7.8,3.6,11.8,3.9c4.3,0.3,8.3-1.8,8.3-8.6c3.2,6,5.7,10.6,8.5,15.8
		c-14.7,0-29.5,0-43.2,0c1.8-5.1,4.4-10.2,5.3-15.6c1.1-6.5-2.1-12.2-7.3-16C489.3,497,489.2,494.9,491.9,491.4z"/>
	<path class="st0" d="M390.2,492.8c10,1.5,16.7,8.8,16.9,17.1c0.2,9.2-5.4,16.3-13.8,18.9c-10.4,3.2-22.5-3.4-23.9-17
		c-0.1-1,1.7-2.7,3-3.1c1.2-0.4,2.9,0.3,5,0.6c-1.2,1.9-2.3,3.3-3.1,4.8c-0.5,0.8-0.6,1.8-0.9,2.6c1.1,0.3,2.3,1.1,3.3,0.9
		c4.5-1,9-2.2,14.5-3.6c0,0.1,0.6-1.2,1.3-2.6c-0.5-0.8-1.4-2-2.4-3.4c1.2-1,2.1-1.9,3.1-2.7c3.3-2.5,3.2-4.7,0-7.4
		C391.9,497,391.4,495,390.2,492.8z"/>
	<path class="st0" d="M349.9,443.7c-0.2,0.8-0.5,1.4-0.6,2.1c-1.3,10-5.8,17.2-16.1,20.3c-4.1,1.2-6.4,4.2-4.7,9c-3.3,0-6.5,0-8.7,0
		c-0.7-5.3-1.3-10.3-1.8-15.3c-0.1-0.7,0.3-1.6,0.5-2.3c1.1-3,2.1-6.1,3.5-9.1c0.7-1.4,2-3.3,3.2-3.4
		C333.4,444.3,341.5,444.1,349.9,443.7z"/>
	<path class="st0" d="M483.8,519.7c1.4-5.6,2.7-10.9,4-16.3c6.9,3.8,9,11.7,5.4,18.5c-3.1,5.9-11.7,9.4-18.9,6.1
		c-7.4-3.3-10.5-12.4-6.4-20.4c2.9-5.6,10.9-8.2,17.1-5.4c-0.4,1.5-0.7,3.1-1.1,4.6c-0.4,1.6-0.9,3.1-1.4,4.7
		c-1.5,0.2-3.1,0.3-4.6,0.5c-0.3,1.9-0.5,3.5-0.9,5c-0.5,1.5-1.3,2.9-1.7,4.6C477.8,518.2,480.5,517,483.8,519.7z"/>
	<path class="st0" d="M492.9,465.8c10,2.3,16.6-7,26.4-7.1c0.6,2.7,1.2,6,1.9,9.1c-5.6,4.2-11,8.2-17.4,13c3.6,2.9,6.4,5.1,9.2,7.3
		c-0.1,0.3-0.2,0.7-0.3,1c-6.2-1.4-12.5-2.8-18.1-4.1C493.1,478.4,487.8,472.5,492.9,465.8z"/>
	<path class="st0" d="M658.3,518.2c0.6-1,1.3-2,2.3-3.6c0.9,1.7,1.5,2.9,2.4,4.5c0-1.9,0-3.2,0-5.3c2.9,0.7,5.6,1.3,9.7,2.3
		c-3.1-1.8-5-2.9-7.7-4.4c1.6-1.1,2.9-1.9,3.4-2.2c-5.9-3.3-12.4-6.9-19-10.6c4.8-5.8,14.4-7.2,20.7-3.3c6.4,4,9.5,12.4,6.8,19.9
		c-2.1,5.8-8,12.5-20.3,10.9c0.6-2.9,1.2-5.7,1.8-8.5C658.3,518,658.3,518.2,658.3,518.2z"/>
	<path class="st0" d="M614.5,480.7c-7-2-14-4-21.4-6.1c0.4-1.8,0.8-3.3,1.2-5.1c-1.7-0.7-3.3-1.4-5.2-2.3c0.9-3.6,1.9-7.3,3-11.6
		c3.1,3.7,5.6,2.4,9,0.7c6.5-3.4,13.6-5.6,21-8.5c0.7,1.8,1.4,3.5,2.4,5.9c-5,1.2-9.4,2.4-13.9,3.3c-6.6,1.4-8.1,4.6-4.3,10.2
		c2.8,4.2,5.9,8.2,8.9,12.3C614.9,479.9,614.7,480.3,614.5,480.7z"/>
	<path class="st0" d="M587,495.4c7.2,6.5,8.7,13,6.2,20.4c-2,6-9,10.9-15.7,10.9c-2.3,0-5-0.2-6.9-1.4c-3.3-2.1-0.3-4.6,0.3-7
		c0.5-2,1-4.1,1.5-6.1c0.6,0.1,1.1,0.2,1.7,0.3c0.1,1.1,0.1,2.3,0.2,4.1c1.5-1.6,2.6-2.9,3.8-4.1c0.9,2.5,1.7,4.6,2.5,6.8
		c0.3-0.1,0.6-0.2,0.9-0.3c-0.5-2.2-1.1-4.4-1.8-7.2c2.2,0.8,3.8,1.3,5.4,1.9c0.2-0.3,0.3-0.5,0.5-0.8c-1.2-1-2.3-2-3.1-2.6
		C583.9,505.6,585.3,501,587,495.4z"/>
	<path class="st0" d="M537.1,516.8c9.1,0.1,17.8-0.5,22.5,9.4c-3.9,4.1-9,3.9-13.7,2.4C540.9,526.9,537.2,523.3,537.1,516.8z"/>
	<path class="st0" d="M573.8,504.2c-0.2,0.9-0.5,2.2-0.8,3.6c-1.1-0.5-2.6-0.7-3.3-1.6c-2.1-2.4-3.8-5.1-5.7-7.7
		c2.7-1.7,5.4-3.5,8.1-5.2c0.3-0.2,0.6-0.4,0.9-0.3c3.3,0.4,6.6,0.8,9.9,1.2c-1.4,3.2-2.4,6.6-4.3,9.6
		C578.1,504.7,575.3,504.1,573.8,504.2z"/>
	<path class="st0" d="M548.9,486.2c0,3.5,0,6.1,0,8.9c-4,1.7-8,3.4-13,5.5c0.8-3.7,1.4-6.5,1.9-8.8c-2.1-1.8-4.2-3.6-6.3-5.3
		c0.3-0.7,0.7-1.4,1-2.1C537.9,485,543.2,485.6,548.9,486.2z"/>
	<path class="st0" d="M493.8,487.7c6.5,1.6,13.6,2.1,19.4,5.1c3.3,1.8,4.5,7.6,6.6,11.6c-0.5,0.4-0.9,0.8-1.4,1.2
		c-8.4-5.6-16.7-11.2-25.1-16.7C493.5,488.5,493.6,488.1,493.8,487.7z"/>
	<path class="st0" d="M592.4,477.9c6.9,2.1,14,3.6,20.5,6.5c2.3,1,3.2,5.4,4.7,8.3c-1.1,0.5-2.6,1.6-3.1,1.3
		c-7.6-4.9-15.1-9.9-22.7-15C592,478.6,592.2,478.3,592.4,477.9z"/>
	<path class="st0" d="M341,501.5c-4-5-8.1-10.1-12.3-15.4c1.1-0.5,1.6-0.9,2.2-1c8.3-2.3,8.7-2,9.9,6.7c0.4,3.1,0.8,6.1,1.2,9.2
		C341.7,501.1,341.4,501.3,341,501.5z"/>
	<path class="st0" d="M335.8,482.1c-7.3,4.4-13.4,1-19.6-1.9C318.6,475.5,332.2,476.9,335.8,482.1z"/>
	<path class="st0" d="M313,440.6c3,1.2,5.2,2.1,7.5,3c0.1,8.9-1.5,11.8-7.5,12.5C313,451.1,313,446.1,313,440.6z"/>
	<path class="st0" d="M636.7,491.5c2.1,1.7,3.7,3,6.3,5.2c-2.2-0.2-3.3-0.3-5-0.5c6.3,4.1-1.5,6.8,0.3,10.3
		c-0.6,0.2-1.2,0.4-1.7,0.6c-1.1-2.2-3.1-4.5-3-6.7C633.5,497.6,635.3,494.9,636.7,491.5z"/>
	<path class="st0" d="M658.3,518.2c0,0,0-0.2,0.1-0.2c-1,2.4-2.1,4.8-3.3,7.6c-2.4-1.6-7.1-1.2-7-6.6c0.9-0.8,1.8-1.7,2.8-2.5
		c1.9-0.5,3.8-0.9,5.6-1.4C657,516.1,657.6,517.2,658.3,518.2z"/>
	<path class="st0" d="M638.7,475.8c-1.1,3.6-2.3,7.2-3.7,11.6c-2.5-1.6-4.4-2.8-7-4.5c3.4-3.1,6.3-5.6,9.1-8.1
		C637.7,475.1,638.2,475.4,638.7,475.8z"/>
	<path class="st0" d="M312,478.9c-0.5,4-0.9,7.9-1.4,12.1c-5.6-2-5.6-2-0.2-12.3C310.9,478.8,311.5,478.9,312,478.9z"/>
	<path class="st0" d="M538.1,511.8c1.3,0,2.5,0,3.8,0c-3.3-1.3-5.5-2.7-1.3-6c2,1.7,4,3.5,5.9,5.2c-0.7,0.7-1.3,1.2-2.6,2.4
		c-1.2-0.2-3.6-0.5-6-0.8C538,512.4,538,512.1,538.1,511.8z"/>
	<path class="st0" d="M650.8,516.5c-0.9,0.8-1.8,1.7-2.8,2.5c-1.5-1.9-3.1-3.8-5.4-6.6c4.1,0,6.6,0,9.4,0
		C651.6,513.7,651.2,515.1,650.8,516.5z"/>
	<path class="st0" d="M548.8,500.7c0,3.4,0,5.9,0,9.7c-2.8-2.3-4.8-4-7.7-6.4C544,502.8,546.2,501.9,548.8,500.7z"/>
	<path class="st0" d="M357.9,508.8c-0.4,4.8-2.1,7.5-6.4,7.1c-3.1-0.3-4.9-2.2-3.1-5.9c0.4,1.2,0.7,2.3,1.5,4.9
		C352.7,512.8,355,511.1,357.9,508.8z"/>
	<path class="st0" d="M561.4,517.2c-0.5-4-0.9-7.7-1.3-11.4C566.4,514.3,566.4,514.3,561.4,517.2z"/>
	<path class="st0" d="M358.8,472.3c-3,7.5-4.1,8-10.5,4.9C351.7,475.6,354.8,474.2,358.8,472.3z"/>
	<path class="st0" d="M371,504.1c0.8-1.5,1.3-2.6,2.2-4.2c2.4,1.7,4.6,3.2,6.7,4.7c-0.2,0.3-0.3,0.6-0.5,0.9
		C376.7,505,374.1,504.6,371,504.1z"/>
	<path class="st0" d="M299.8,503.3c1.1-2.3,2-4.7,3.3-6.9c0.4-0.6,1.7-0.6,2.6-0.9c0,0.8,0.3,2-0.1,2.5c-1.5,2-3.3,3.9-5,5.8
		C300.4,503.7,300.1,503.5,299.8,503.3z"/>
	<path class="st0" d="M332.8,436.2c-3.8,0.7-6,1.2-8.1,1.6c-0.3-0.3-0.5-0.7-0.8-1c1.1-1.1,2.1-3,3.2-3.1
		C328.6,433.6,330.2,435,332.8,436.2z"/>
	<path class="st0" d="M263.9,590.5c0-7.3,0-14.5,0-21.8c0-4.3,3.3-5,6.5-5.4c4.3-0.5,8,0.7,9.7,5.1c2,5.2,1.1,10.5-2.6,14.4
		c-3.4,3.5-8,6-12,8.9C265,591.3,264.5,590.9,263.9,590.5z"/>
	<path class="st0" d="M345.3,600.9c-5.2-2.1-9.5-4-14.5-6c1.9-6.8,3.9-13.9,5.8-21.1c0.4,0,0.8,0,1.2-0.1
		C340.3,582.7,342.7,591.6,345.3,600.9z"/>
	<path class="st0" d="M627,601c0-10.2-0.2-19.9,0.1-29.5c0.1-4.1,3.9-5,7.3-5.4c6.3-0.8,10.8,1.1,12.5,5.8
		c2.6,6.7,1.6,13.1-2.9,18.8C639.8,595.8,634.2,598.9,627,601z"/>
</g>
</svg>
